<svg width="98" height="97" viewBox="0 0 98 97" fill="none" xmlns="http://www.w3.org/2000/svg">
<path fill-rule="evenodd" clip-rule="evenodd" d="M15.4886 16.469C14.6226 15.8186 14.525 14.5528 15.3147 13.8116C24.0541 5.60917 35.8878 0.576683 48.9042 0.576683C75.7584 0.576683 97.5786 21.9971 97.5786 48.4824C97.5786 56.7339 95.4607 64.4937 91.7324 71.2674C91.2213 72.196 90.0068 72.429 89.1593 71.7925V71.7925C88.4275 71.243 88.231 70.2322 88.6697 69.429C92.0789 63.1885 94.0118 56.055 94.0118 48.4824C94.0118 24.0224 73.8443 4.14345 48.9042 4.14345C36.8634 4.14345 25.9351 8.77684 17.8516 16.3222C17.1991 16.9313 16.2024 17.005 15.4886 16.469V16.469Z" fill="black"/>
</svg>
